<svg xmlns="http://www.w3.org/2000/svg" id="Layer_1" data-name="Layer 1" viewBox="0 0 75.13 75.14"><defs><style>.cls-1{fill:#fff;}</style></defs><title>clarity</title><path class="cls-1" d="M158.21,234.08V159h75.12v75.13Zm17.17-4.54h30.74v-7.46h-3a9.1,9.1,0,0,1-8.29-5.82c-.75-1.94-.52-3.94-.58-5.93,0-.54.16-1,.74-1s.75.44.75,1c0,.83,0,1.66,0,2.49a7.49,7.49,0,0,0,7.72,7.78c4.49,0,9,0,13.48,0a3.55,3.55,0,0,0,.79-.09,6,6,0,0,0,4.77-6c0-3.86,0-7.72,0-11.57,0-1.27.51-1.78,1.76-1.79.71,0,1.42,0,2.13,0a2.27,2.27,0,0,0,2-3.42q-.46-.92-1-1.8a71.23,71.23,0,0,1-6-13.28,23.14,23.14,0,0,0-4.91-8.33c-7.51-8.42-17-11.78-28.06-10.34a29.15,29.15,0,0,0-20.27,11.86,26.44,26.44,0,0,0-5,21.29,27.63,27.63,0,0,0,11.2,17.57,2.27,2.27,0,0,1,1,2c0,4,0,8,0,12Z" transform="translate(-158.21 -158.95)"></path><path d="M175.38,229.54v-.85c0-4,0-8,0-12a2.27,2.27,0,0,0-1-2,27.63,27.63,0,0,1-11.2-17.57,26.44,26.44,0,0,1,5-21.29,29.15,29.15,0,0,1,20.27-11.86c11.1-1.44,20.55,1.92,28.06,10.34a23.14,23.14,0,0,1,4.91,8.33,71.23,71.23,0,0,0,6,13.28q.49.88,1,1.8a2.27,2.27,0,0,1-2,3.42c-.71,0-1.42,0-2.13,0-1.25,0-1.76.52-1.76,1.79,0,3.85,0,7.71,0,11.57a6,6,0,0,1-4.77,6,3.55,3.55,0,0,1-.79.09c-4.49,0-9,0-13.48,0a7.49,7.49,0,0,1-7.72-7.78c0-.83,0-1.66,0-2.49,0-.53-.18-1-.75-1s-.75.43-.74,1c.06,2-.17,4,.58,5.93a9.1,9.1,0,0,0,8.29,5.82h3v7.46Zm17.33-53.92a10.49,10.49,0,1,0,10.48,10.5A10.44,10.44,0,0,0,192.71,175.62Zm.72,25.08c0-.61,0-1.22,0-1.82a.69.69,0,0,0-.72-.76.66.66,0,0,0-.72.74c0,1.22,0,2.43,0,3.65,0,.49.26.87.74.77a1.12,1.12,0,0,0,.67-.76A11,11,0,0,0,193.43,200.7ZM181,173.59c-.23.19-.57.32-.62.53a1,1,0,0,0,.18.85c.77.84,1.6,1.63,2.41,2.45.36.37.76.58,1.2.15s.2-.84-.16-1.2c-.78-.78-1.55-1.56-2.33-2.32A5.25,5.25,0,0,0,181,173.59Zm-3,13.21h1.82a.73.73,0,1,0,.06-1.45c-1.24,0-2.49,0-3.72,0a1,1,0,0,0-.71.72c-.09.49.31.7.79.7Zm29.21,0h1.82c.48,0,.89-.21.79-.71a1.1,1.1,0,0,0-.72-.72c-1.23-.07-2.47,0-3.71,0a.73.73,0,1,0,.07,1.45Zm-2.09-12.39c-.17-.23-.29-.55-.48-.6a1.06,1.06,0,0,0-.86.12c-.9.82-1.74,1.7-2.6,2.57a.69.69,0,0,0,0,1.09c.38.36.76.24,1.1-.09.83-.83,1.66-1.65,2.48-2.49A4.55,4.55,0,0,0,205.19,174.41Zm-20.67,20.68c-.18-.23-.31-.56-.5-.6a1.16,1.16,0,0,0-.9.17c-.86.78-1.66,1.63-2.49,2.45-.35.35-.48.75-.1,1.15s.79.25,1.14-.1c.81-.81,1.62-1.61,2.42-2.43A4.15,4.15,0,0,0,184.52,195.09Zm17.18-.83c-.23.2-.56.34-.61.56a1,1,0,0,0,.18.83c.78.85,1.61,1.64,2.42,2.46.37.37.77.58,1.19.14s.2-.85-.16-1.21c-.78-.77-1.55-1.56-2.34-2.32A5.25,5.25,0,0,0,201.7,194.26Zm-8.27-22.73c0-.61,0-1.21,0-1.82s-.18-.82-.71-.83-.73.32-.73.79c0,1.2,0,2.39,0,3.58,0,.47.21.8.73.79s.7-.37.71-.83S193.43,172.09,193.43,171.53Z" transform="translate(-158.21 -158.95)"></path><path class="cls-1" d="M192.71,175.62a10.49,10.49,0,1,1-10.49,10.43A10.44,10.44,0,0,1,192.71,175.62Zm0,1.47a9,9,0,1,0,9,9.12A9,9,0,0,0,192.74,177.09Z" transform="translate(-158.21 -158.95)"></path><path class="cls-1" d="M193.43,200.7a11,11,0,0,1,0,1.82,1.12,1.12,0,0,1-.67.76c-.48.1-.74-.28-.74-.77,0-1.22,0-2.43,0-3.65a.66.66,0,0,1,.72-.74.69.69,0,0,1,.72.76C193.44,199.48,193.43,200.09,193.43,200.7Z" transform="translate(-158.21 -158.95)"></path><path class="cls-1" d="M181,173.59a5.25,5.25,0,0,1,.68.46c.78.76,1.55,1.54,2.33,2.32.36.36.6.76.16,1.2s-.84.22-1.2-.15c-.81-.82-1.64-1.61-2.41-2.45a1,1,0,0,1-.18-.85C180.46,173.91,180.8,173.78,181,173.59Z" transform="translate(-158.21 -158.95)"></path><path class="cls-1" d="M178.07,186.8h-1.76c-.48,0-.88-.21-.79-.7a1,1,0,0,1,.71-.72c1.23-.08,2.48,0,3.72,0a.73.73,0,1,1-.06,1.45Z" transform="translate(-158.21 -158.95)"></path><path class="cls-1" d="M207.28,186.8h-1.75a.73.73,0,1,1-.07-1.45c1.24,0,2.48,0,3.71,0a1.1,1.1,0,0,1,.72.72c.1.5-.31.71-.79.71Z" transform="translate(-158.21 -158.95)"></path><path class="cls-1" d="M205.19,174.41a4.55,4.55,0,0,1-.38.6c-.82.84-1.65,1.66-2.48,2.49-.34.33-.72.45-1.1.09a.69.69,0,0,1,0-1.09c.86-.87,1.7-1.75,2.6-2.57a1.06,1.06,0,0,1,.86-.12C204.9,173.86,205,174.18,205.19,174.41Z" transform="translate(-158.21 -158.95)"></path><path class="cls-1" d="M184.52,195.09a4.15,4.15,0,0,1-.43.64c-.8.82-1.61,1.62-2.42,2.43-.35.35-.74.5-1.14.1s-.25-.8.1-1.15c.83-.82,1.63-1.67,2.49-2.45a1.16,1.16,0,0,1,.9-.17C184.21,194.53,184.34,194.86,184.52,195.09Z" transform="translate(-158.21 -158.95)"></path><path class="cls-1" d="M201.7,194.26a5.25,5.25,0,0,1,.68.46c.79.76,1.56,1.55,2.34,2.32.36.36.58.77.16,1.21s-.82.23-1.19-.14c-.81-.82-1.64-1.61-2.42-2.46a1,1,0,0,1-.18-.83C201.14,194.6,201.47,194.46,201.7,194.26Z" transform="translate(-158.21 -158.95)"></path><path class="cls-1" d="M193.43,171.53c0,.56,0,1.12,0,1.68s-.17.82-.71.83-.73-.32-.73-.79c0-1.19,0-2.38,0-3.58,0-.47.2-.8.73-.79s.7.37.71.83S193.43,170.92,193.43,171.53Z" transform="translate(-158.21 -158.95)"></path><path d="M192.74,177.09a9,9,0,1,1-9,8.9A9,9,0,0,1,192.74,177.09Z" transform="translate(-158.21 -158.95)"></path></svg>