<svg xmlns="http://www.w3.org/2000/svg" id="Layer_1" data-name="Layer 1" viewBox="0 0 64.33 64.33"><defs><style>.cls-1{fill:#fff;}</style></defs><title>parents</title><path class="cls-1" d="M146.35,230.87v12.42H82V179h64.33v45.27a5.24,5.24,0,0,0-3.75-3.65c-2.12-.76-4.18-1.67-6.28-2.49a1.52,1.52,0,0,1-1.1-1.62c0-.52,0-1.05,0-1.56a.93.93,0,0,1,.36-.64,10.79,10.79,0,0,0,5.18-9.08c.11-3.09-1-5.33-4.23-6.37-1.56-.5-3.19-.8-4.79-1.17a14.59,14.59,0,0,1-5.34-2c-1.1-.78-1.46-.69-2.17.47-1.3,2.14-3,3.71-5.72,3.57a13.76,13.76,0,0,1,.59-5A11.26,11.26,0,0,1,141,196.56c.15,1.24.11,2.5.16,3.75,0,.7.37,1.09.94,1.1s1-.36,1-1.07a26,26,0,0,0-.12-3.75,13,13,0,0,0-6.14-9.51.8.8,0,0,1-.45-.85,4.51,4.51,0,0,0-1.4-3.56,7.39,7.39,0,0,0-8.79-1.07,5,5,0,0,0-2.78,4.88.67.67,0,0,1-.24.45c-.2.17-.46.29-.68.45a12.64,12.64,0,0,0-5.64,9.27,53.25,53.25,0,0,0-.12,6.32,2.79,2.79,0,0,0,1.69,2.53,1.11,1.11,0,0,1,.66,1,10,10,0,0,0,4.16,7.08,2.59,2.59,0,0,1,1.27,2.59c-.11,1.34-.16,1.54-1.4,2l-6.68,2.66a4.41,4.41,0,0,0-3.08,4.59V230c0,1.07.12,1.25,1.11,1.63V240c0,1,.35,1.48,1,1.46s.94-.49.94-1.44v-8.53h2.55v8.6c0,.91.32,1.37.93,1.37s1-.46,1-1.34V228.62c0-.79-.33-1.23-.92-1.25s-1,.44-1,1.26v.93h-3.65c0-1.55,0-3.07,0-4.58a2.16,2.16,0,0,1,1.33-2.1c2-.85,4-1.64,6-2.46l.61.91a16.82,16.82,0,0,0,5.93,5.47,1.16,1.16,0,0,0,1.3,0,32.6,32.6,0,0,0,3.59-2.69,42.3,42.3,0,0,0,3.14-3.66c1.9.77,3.91,1.57,5.91,2.41a2,2,0,0,1,1.29,1.78c.05,1.62,0,3.24,0,4.9h-3.59v-.71c0-1-.31-1.47-1-1.48s-1,.47-1,1.47V240a4.13,4.13,0,0,0,0,.5,1,1,0,1,0,1.9,0,4.13,4.13,0,0,0,0-.5v-8.43h2.54v.72c0,2.67,0,5.35,0,8,0,.76.37,1.22,1,1.21s.92-.44.92-1.18c0-1.19,0-2.38,0-3.58v-5ZM98.83,218V240c0,1,.31,1.48,1,1.47s.93-.47.93-1.49V218l.75.55a18.56,18.56,0,0,0,1.64,1.15,1.83,1.83,0,0,0,2.39-.38c1.46-1.74,2.86-3.53,4.31-5.34l3.39,1c.22.06.44.13.65.21a2.39,2.39,0,0,1,1.67,2.2c.07.68.47,1,1,1s.85-.44.83-1.11a4.16,4.16,0,0,0-3.06-3.92q-2.7-.86-5.45-1.63a1.63,1.63,0,0,1-1-.76c-.39-.62-.69-1.35-1.55-1.44-.06-1.27-.07-1.28.33-1.61a10.78,10.78,0,0,0,4-7.15.82.82,0,0,1,.52-.74,3.14,3.14,0,0,0,1-4.92,1.58,1.58,0,0,1-.32-.88c0-2,0-4,0-6a5.35,5.35,0,0,0-2-4.2,1.56,1.56,0,0,1-.45-.57,4.29,4.29,0,0,0-4.21-2.86q-4,0-7.9,0a20.5,20.5,0,0,0-2.07.11,8.65,8.65,0,0,0-7.38,7.44c-.16,2-.08,4-.14,6.07a1.35,1.35,0,0,1-.25.79,3.18,3.18,0,0,0,1,5,1.07,1.07,0,0,1,.48.69,10.41,10.41,0,0,0,3.67,6.84,1.83,1.83,0,0,1,.65,2c-.89,0-1.14.8-1.51,1.37a1.82,1.82,0,0,1-1.11.81c-1.7.48-3.4,1-5.09,1.52a4.3,4.3,0,0,0-3.37,4.52v22.32a5.42,5.42,0,0,0,0,.57.93.93,0,0,0,1.86,0,5.42,5.42,0,0,0,0-.57V217.65a2.29,2.29,0,0,1,1.44-2.36c1.43-.54,2.92-.93,4.36-1.38.19.29.32.53.49.74l3.4,4.26a2.12,2.12,0,0,0,3.32.41Zm10,13.65v7.46c0,.44,0,.88,0,1.32,0,.67.39,1.1,1,1.09s.91-.44.92-1.12v-.44c0-5.35,0-10.7,0-16.05a4.41,4.41,0,0,1,.38-1.66c.51-1.14,1.12-2.24,1.66-3.36a1,1,0,0,0-.29-1.37c-.52-.33-1.07-.13-1.42.55-.65,1.28-1.31,2.56-1.92,3.87a3,3,0,0,0-.29,1.25C108.84,226,108.86,228.81,108.86,231.63Zm-18.16.06c0-2.8,0-5.6,0-8.4a2.31,2.31,0,0,0-.09-.92c-.73-1.53-1.48-3-2.27-4.54a.86.86,0,0,0-1.24-.36.93.93,0,0,0-.41,1.24,2,2,0,0,0,.19.39c.55,1.12,1.13,2.23,1.66,3.36a2.66,2.66,0,0,1,.25,1.07q0,8.31,0,16.61c0,.88.34,1.36,1,1.36s.94-.46,1-1.35v-8.46Zm6.7-5.63a1,1,0,0,0-1-.92,1,1,0,0,0-.88,1,.92.92,0,0,0,1,.91A1,1,0,0,0,97.4,226.06Zm-.93,3.55a.93.93,0,0,0-1,.94,1,1,0,0,0,.92.93,1,1,0,0,0,1-.95A1,1,0,0,0,96.47,229.61Zm0,4.43a1,1,0,0,0-.91,1,.91.91,0,0,0,1,.86.94.94,0,0,0,.92-.92A1,1,0,0,0,96.42,234Z" transform="translate(-82.02 -178.96)"></path><path d="M146.35,230.87l-1.12.86v5c0,1.2,0,2.39,0,3.58,0,.74-.35,1.17-.92,1.18s-1-.45-1-1.21c0-2.68,0-5.36,0-8v-.72h-2.54V240a4.13,4.13,0,0,1,0,.5,1,1,0,1,1-1.9,0,4.13,4.13,0,0,1,0-.5V228.84c0-1,.31-1.47,1-1.47s1,.48,1,1.48v.71h3.59c0-1.66,0-3.28,0-4.9a2,2,0,0,0-1.29-1.78c-2-.84-4-1.64-5.91-2.41a42.3,42.3,0,0,1-3.14,3.66,32.6,32.6,0,0,1-3.59,2.69,1.16,1.16,0,0,1-1.3,0,16.82,16.82,0,0,1-5.93-5.47l-.61-.91c-2,.82-4.06,1.61-6,2.46a2.16,2.16,0,0,0-1.33,2.1c0,1.51,0,3,0,4.58h3.65v-.93c0-.82.36-1.28,1-1.26s.92.46.92,1.25v11.54c0,.88-.34,1.35-1,1.34s-.93-.46-.93-1.37v-8.6h-2.55v8.53c0,.95-.31,1.42-.94,1.44s-1-.48-1-1.46V231.6c-1-.38-1.11-.56-1.11-1.63v-4.51a4.41,4.41,0,0,1,3.08-4.59l6.68-2.66c1.24-.5,1.29-.7,1.4-2a2.59,2.59,0,0,0-1.27-2.59A10,10,0,0,1,119,206.5a1.11,1.11,0,0,0-.66-1,2.79,2.79,0,0,1-1.69-2.53,53.25,53.25,0,0,1,.12-6.32,12.64,12.64,0,0,1,5.64-9.27c.22-.16.48-.28.68-.45a.67.67,0,0,0,.24-.45,5,5,0,0,1,2.78-4.88,7.39,7.39,0,0,1,8.79,1.07,4.51,4.51,0,0,1,1.4,3.56.8.8,0,0,0,.45.85,13,13,0,0,1,6.14,9.51,26,26,0,0,1,.12,3.75c0,.71-.39,1.08-1,1.07s-.91-.4-.94-1.1c-.05-1.25,0-2.51-.16-3.75a11.26,11.26,0,0,0-21.83-1.86,13.76,13.76,0,0,0-.59,5c2.75.14,4.42-1.43,5.72-3.57.71-1.16,1.07-1.25,2.17-.47a14.59,14.59,0,0,0,5.34,2c1.6.37,3.23.67,4.79,1.17,3.23,1,4.34,3.28,4.23,6.37a10.79,10.79,0,0,1-5.18,9.08.93.93,0,0,0-.36.64c-.05.51,0,1,0,1.56a1.52,1.52,0,0,0,1.1,1.62c2.1.82,4.16,1.73,6.28,2.49a5.24,5.24,0,0,1,3.75,3.65Zm-20.62-33.42a1,1,0,0,0-.17.11l-.41.55c-1.34,1.8-2.93,3.18-5.32,3.34a1.68,1.68,0,0,0-1,.58,1.2,1.2,0,0,0,.74,1.89c1.13.28,1.18.35,1.25,1.52,0,.31.06.62.11.93a9,9,0,0,0,17.93-2.43,3.2,3.2,0,0,0-1.86-2.85,18.54,18.54,0,0,0-3.18-1.06C131,199.39,128.2,199,125.73,197.45Zm9.49,22.26a3,3,0,0,1-1.68-1.86,24,24,0,0,1-.32-2.48,11.28,11.28,0,0,1-6.92,0c.13,1.83,0,3.47-1.87,4.36a15.35,15.35,0,0,0,5.13,5.13.64.64,0,0,0,.54,0A15.47,15.47,0,0,0,135.22,219.71Zm-9.91-33.85a13.57,13.57,0,0,1,9.09,0c-.34-2.27-2.46-3.56-5.36-3.28C126.8,182.81,125.19,184.48,125.31,185.86Z" transform="translate(-82.02 -178.96)"></path><path d="M98.83,218,97,219.32a2.12,2.12,0,0,1-3.32-.41l-3.4-4.26c-.17-.21-.3-.45-.49-.74-1.44.45-2.93.84-4.36,1.38A2.29,2.29,0,0,0,84,217.65v22.44a5.42,5.42,0,0,1,0,.57.93.93,0,0,1-1.86,0,5.42,5.42,0,0,1,0-.57V217.75a4.3,4.3,0,0,1,3.37-4.52c1.69-.52,3.39-1,5.09-1.52a1.82,1.82,0,0,0,1.11-.81c.37-.57.62-1.33,1.51-1.37a1.83,1.83,0,0,0-.65-2,10.41,10.41,0,0,1-3.67-6.84,1.07,1.07,0,0,0-.48-.69,3.18,3.18,0,0,1-1-5,1.35,1.35,0,0,0,.25-.79c.06-2,0-4.06.14-6.07a8.65,8.65,0,0,1,7.38-7.44,20.5,20.5,0,0,1,2.07-.11q3.94,0,7.9,0a4.29,4.29,0,0,1,4.21,2.86,1.56,1.56,0,0,0,.45.57,5.35,5.35,0,0,1,2,4.2c0,2,0,4,0,6a1.58,1.58,0,0,0,.32.88,3.14,3.14,0,0,1-1,4.92.82.82,0,0,0-.52.74,10.78,10.78,0,0,1-4,7.15c-.4.33-.39.34-.33,1.61.86.09,1.16.82,1.55,1.44a1.63,1.63,0,0,0,1,.76q2.75.78,5.45,1.63a4.16,4.16,0,0,1,3.06,3.92c0,.67-.27,1.06-.83,1.11s-1-.31-1-1a2.39,2.39,0,0,0-1.67-2.2c-.21-.08-.43-.15-.65-.21l-3.39-1c-1.45,1.81-2.85,3.6-4.31,5.34a1.83,1.83,0,0,1-2.39.38,18.56,18.56,0,0,1-1.64-1.15l-.75-.55v22c0,1-.29,1.49-.93,1.49s-1-.47-1-1.47V218Zm-5-27.29c-.18.85-.39,1.62-.5,2.4-.28,2.13-1,2.94-3.35,2.8A1.26,1.26,0,0,0,88.52,197c-.09.78.32,1.28,1.21,1.45a1,1,0,0,1,1,1c0,.23,0,.46.06.69a9.05,9.05,0,0,0,18.07-.4c.06-1,.18-1.13,1.13-1.34a1.22,1.22,0,0,0,1-.9,1.14,1.14,0,0,0-.43-1.33,1.37,1.37,0,0,1-.6-1.29c0-2.11,0-4.22,0-6.33a3.7,3.7,0,0,0-1.57-3.17,2.18,2.18,0,0,1-.71-.91,2.44,2.44,0,0,0-2.62-1.94c-2.82,0-5.64,0-8.46,0a6.75,6.75,0,0,0-6.88,5.65,21.13,21.13,0,0,0-.12,3.19c0,.85,0,1.7,0,2.62.38,0,.69,0,1,0,.47,0,.65-.15.72-.62.16-1,.37-2,.61-3a2,2,0,0,1,2.48-1.54,42.19,42.19,0,0,0,4.45.64,17.08,17.08,0,0,0,7.08-.95,1,1,0,0,1,1.21.22c.48.55.19,1.31-.63,1.6a21.61,21.61,0,0,1-10.19.82C95.52,191.05,94.71,190.86,93.82,190.69Zm1.35,18.64a10.94,10.94,0,0,0,0,1.16,1.21,1.21,0,0,0,.25.7c1.43,1.22,2.88,2.41,4.35,3.64l3.89-3.25a1.7,1.7,0,0,0,.58-2.19A11.14,11.14,0,0,1,95.17,209.33Zm6.14,6.7c.85.63,1.62,1.23,2.42,1.79a.58.58,0,0,0,.56,0c1.08-1.32,2.14-2.66,3.21-4l-1.25-1.87Zm-3.07,0-4.93-4.11-1.26,1.87c1.08,1.35,2.14,2.69,3.23,4a.57.57,0,0,0,.51,0C96.61,217.27,97.4,216.66,98.24,216Z" transform="translate(-82.02 -178.96)"></path><path d="M108.86,231.63c0-2.82,0-5.64,0-8.46a3,3,0,0,1,.29-1.25c.61-1.31,1.27-2.59,1.92-3.87.35-.68.9-.88,1.42-.55a1,1,0,0,1,.29,1.37c-.54,1.12-1.15,2.22-1.66,3.36a4.41,4.41,0,0,0-.38,1.66c0,5.35,0,10.7,0,16.05v.44c0,.68-.37,1.11-.92,1.12s-.94-.42-1-1.09c0-.44,0-.88,0-1.32Z" transform="translate(-82.02 -178.96)"></path><path d="M90.7,231.69v8.46c0,.89-.33,1.36-1,1.35s-1-.48-1-1.36q0-8.31,0-16.61a2.66,2.66,0,0,0-.25-1.07c-.53-1.13-1.11-2.24-1.66-3.36a2,2,0,0,1-.19-.39.93.93,0,0,1,.41-1.24.86.86,0,0,1,1.24.36c.79,1.5,1.54,3,2.27,4.54a2.31,2.31,0,0,1,.09.92C90.71,226.09,90.7,228.89,90.7,231.69Z" transform="translate(-82.02 -178.96)"></path><path d="M97.4,226.06a1,1,0,0,1-.9.95.92.92,0,0,1-1-.91,1,1,0,0,1,.88-1A1,1,0,0,1,97.4,226.06Z" transform="translate(-82.02 -178.96)"></path><path d="M96.47,229.61a1,1,0,0,1,.93.92,1,1,0,0,1-1,.95,1,1,0,0,1-.92-.93A.93.93,0,0,1,96.47,229.61Z" transform="translate(-82.02 -178.96)"></path><path d="M96.42,234a1,1,0,0,1,1,1,.94.94,0,0,1-.92.92.91.91,0,0,1-1-.86A1,1,0,0,1,96.42,234Z" transform="translate(-82.02 -178.96)"></path><path class="cls-1" d="M125.73,197.45c2.47,1.53,5.29,1.94,8,2.58a18.54,18.54,0,0,1,3.18,1.06,3.2,3.2,0,0,1,1.86,2.85,9,9,0,0,1-17.93,2.43c0-.31-.09-.62-.11-.93-.07-1.17-.12-1.24-1.25-1.52a1.2,1.2,0,0,1-.74-1.89,1.68,1.68,0,0,1,1-.58c2.39-.16,4-1.54,5.32-3.34l.41-.55A1,1,0,0,1,125.73,197.45Zm4.11,12.87a3.88,3.88,0,0,0,2.9-1.39,1,1,0,0,0,0-1.31.9.9,0,0,0-1.29,0c-.14.12-.26.27-.41.39a1.75,1.75,0,0,1-2.39,0c-.14-.12-.27-.27-.41-.38a.89.89,0,0,0-1.25,0,.91.91,0,0,0-.06,1.3A3.73,3.73,0,0,0,129.84,210.32Zm-3.54-7c0-.21,0-.42,0-.62a.87.87,0,0,0-.88-.87.89.89,0,0,0-1,.79,3,3,0,0,0,0,.68c0,1,.31,1.53,1,1.51S126.32,204.29,126.3,203.28Zm8.9,0h0a4.17,4.17,0,0,0,0-.5.93.93,0,0,0-.92-1,.94.94,0,0,0-1,.95,5.15,5.15,0,0,0,0,1.24.87.87,0,0,0,1,.79.88.88,0,0,0,.88-.88C135.22,203.67,135.2,203.46,135.2,203.25Z" transform="translate(-82.02 -178.96)"></path><path class="cls-1" d="M135.22,219.71a15.47,15.47,0,0,1-5.12,5.12.64.64,0,0,1-.54,0,15.35,15.35,0,0,1-5.13-5.13c1.87-.89,2-2.53,1.87-4.36a11.28,11.28,0,0,0,6.92,0,24,24,0,0,0,.32,2.48A3,3,0,0,0,135.22,219.71Z" transform="translate(-82.02 -178.96)"></path><path class="cls-1" d="M125.31,185.86c-.12-1.38,1.49-3.05,3.73-3.27,2.9-.28,5,1,5.36,3.28A13.57,13.57,0,0,0,125.31,185.86Z" transform="translate(-82.02 -178.96)"></path><path class="cls-1" d="M93.82,190.69c.89.17,1.7.36,2.52.47a21.61,21.61,0,0,0,10.19-.82c.82-.29,1.11-1.05.63-1.6a1,1,0,0,0-1.21-.22,17.08,17.08,0,0,1-7.08.95,42.19,42.19,0,0,1-4.45-.64,2,2,0,0,0-2.48,1.54c-.24,1-.45,2-.61,3-.07.47-.25.67-.72.62-.31,0-.62,0-1,0,0-.92,0-1.77,0-2.62a21.13,21.13,0,0,1,.12-3.19,6.75,6.75,0,0,1,6.88-5.65c2.82,0,5.64,0,8.46,0a2.44,2.44,0,0,1,2.62,1.94,2.18,2.18,0,0,0,.71.91,3.7,3.7,0,0,1,1.57,3.17c0,2.11,0,4.22,0,6.33a1.37,1.37,0,0,0,.6,1.29,1.14,1.14,0,0,1,.43,1.33,1.22,1.22,0,0,1-1,.9c-1,.21-1.07.34-1.13,1.34a9.05,9.05,0,0,1-18.07.4c0-.23,0-.46-.06-.69a1,1,0,0,0-1-1c-.89-.17-1.3-.67-1.21-1.45A1.26,1.26,0,0,1,90,195.89c2.38.14,3.07-.67,3.35-2.8C93.43,192.31,93.64,191.54,93.82,190.69Zm6,14.09a4,4,0,0,0,2.94-1.45.88.88,0,0,0,0-1.25.87.87,0,0,0-1.19-.14,6,6,0,0,0-.47.41,1.74,1.74,0,0,1-2.48,0c-.11-.09-.21-.2-.32-.3a.91.91,0,0,0-1.3,0,.9.9,0,0,0,0,1.34A3.91,3.91,0,0,0,99.77,204.78Zm-3.49-7a5.23,5.23,0,0,0,0-.56,1,1,0,0,0-1-1,.92.92,0,0,0-.94.95,4.7,4.7,0,0,0,0,1.06.92.92,0,0,0,.93,1,1,1,0,0,0,1-.95A4.17,4.17,0,0,0,96.28,197.74Zm8.9,0a4.26,4.26,0,0,0,0-.62.9.9,0,0,0-1-.87.89.89,0,0,0-.92.9c0,.2,0,.41,0,.62,0,1,.31,1.45,1,1.44S105.19,198.72,105.18,197.72Z" transform="translate(-82.02 -178.96)"></path><path class="cls-1" d="M95.17,209.33a11.14,11.14,0,0,0,9.08.06,1.7,1.7,0,0,1-.58,2.19l-3.89,3.25c-1.47-1.23-2.92-2.42-4.35-3.64a1.21,1.21,0,0,1-.25-.7A10.94,10.94,0,0,1,95.17,209.33Z" transform="translate(-82.02 -178.96)"></path><path class="cls-1" d="M101.31,216l4.94-4.11,1.25,1.87c-1.07,1.34-2.13,2.68-3.21,4a.58.58,0,0,1-.56,0C102.93,217.26,102.16,216.66,101.31,216Z" transform="translate(-82.02 -178.96)"></path><path class="cls-1" d="M98.24,216c-.84.63-1.63,1.24-2.45,1.82a.57.57,0,0,1-.51,0c-1.09-1.33-2.15-2.67-3.23-4l1.26-1.87Z" transform="translate(-82.02 -178.96)"></path><path d="M129.84,210.32a3.73,3.73,0,0,1-2.94-1.42.91.91,0,0,1,.06-1.3.89.89,0,0,1,1.25,0c.14.11.27.26.41.38a1.75,1.75,0,0,0,2.39,0c.15-.12.27-.27.41-.39a.9.9,0,0,1,1.29,0,1,1,0,0,1,0,1.31A3.88,3.88,0,0,1,129.84,210.32Z" transform="translate(-82.02 -178.96)"></path><path d="M126.3,203.28c0,1-.27,1.48-.91,1.49s-1-.48-1-1.51a3,3,0,0,1,0-.68.89.89,0,0,1,1-.79.87.87,0,0,1,.88.87C126.31,202.86,126.3,203.07,126.3,203.28Z" transform="translate(-82.02 -178.96)"></path><path d="M135.2,203.25c0,.21,0,.42,0,.63a.88.88,0,0,1-.88.88.87.87,0,0,1-1-.79,5.15,5.15,0,0,1,0-1.24.94.94,0,0,1,1-.95.93.93,0,0,1,.92,1,4.17,4.17,0,0,1,0,.5Z" transform="translate(-82.02 -178.96)"></path><path d="M99.77,204.78a3.91,3.91,0,0,1-2.89-1.41.9.9,0,0,1,0-1.34.91.91,0,0,1,1.3,0c.11.1.21.21.32.3a1.74,1.74,0,0,0,2.48,0,6,6,0,0,1,.47-.41.87.87,0,0,1,1.19.14.88.88,0,0,1,0,1.25A4,4,0,0,1,99.77,204.78Z" transform="translate(-82.02 -178.96)"></path><path d="M96.28,197.74a4.17,4.17,0,0,1,0,.5,1,1,0,0,1-1,.95.92.92,0,0,1-.93-1,4.7,4.7,0,0,1,0-1.06.92.92,0,0,1,.94-.95,1,1,0,0,1,1,1A5.23,5.23,0,0,1,96.28,197.74Z" transform="translate(-82.02 -178.96)"></path><path d="M105.18,197.72c0,1-.29,1.46-.93,1.47s-1-.44-1-1.44c0-.21,0-.42,0-.62a.89.89,0,0,1,.92-.9.9.9,0,0,1,1,.87A4.26,4.26,0,0,1,105.18,197.72Z" transform="translate(-82.02 -178.96)"></path></svg>