<svg xmlns="http://www.w3.org/2000/svg" id="Layer_1" data-name="Layer 1" viewBox="0 0 63.72 63.74"><defs><style>.cls-1{fill:#fff;}</style></defs><title>parents1</title><path class="cls-1" d="M94.08,188.39V124.65H157.8v63.74Zm29.68-9.06h33c0-.41,0-.76,0-1.11q-.16-4.53-.34-9.06a5.35,5.35,0,0,0-2.52-4.46,16.27,16.27,0,0,0-2.26-1.29c-1.41-.65-2.86-1.24-4.33-1.86l-2.4,4.5c-.51.95-.62,1-1.47.34L140.31,164l-3.4,2.51c-.56.41-.78.36-1.11-.25-.75-1.41-1.5-2.81-2.23-4.22-.19-.36-.37-.49-.77-.3-1.9.9-3.84,1.72-5.72,2.67a5.56,5.56,0,0,0-3,5.18q-.15,4.53-.28,9.06C123.75,178.9,123.76,179.1,123.76,179.33Zm1.53-14.87c-2.09-.92-4.06-1.8-6.05-2.65a.6.6,0,0,0-.5.18,9.51,9.51,0,0,1-14,0,.78.78,0,0,0-.67-.18A25.35,25.35,0,0,0,98,164.75a5.35,5.35,0,0,0-2.44,4.32c-.1,1.68-.17,3.35-.2,5s0,3.47,0,5.24h27.4c.09-2.71.17-5.38.26-8,0-1,0-2,.18-3A6.74,6.74,0,0,1,125.29,164.46ZM100.79,162a.5.5,0,0,0,.15,0c2.19-.74,4.38-1.48,6.55-2.25a.68.68,0,0,0,.35-.51,16.51,16.51,0,0,0,0-2.11,1.14,1.14,0,0,0-.38-.68c-.48-.45-1.06-.8-1.51-1.28a11.26,11.26,0,0,1-3-9.19,5.69,5.69,0,0,1,4.52-5.41,16.77,16.77,0,0,1,8.89.09,5.33,5.33,0,0,1,4,4.3,11.16,11.16,0,0,1-3.23,10.61c-1.58.72-1.67,2.07-1.54,3.55a.66.66,0,0,0,.57.7q2.31.71,4.59,1.49c.66.23,1.29.53,2,.84,0-1,0-1.83,0-2.69,0-4.6,0-9.2-.14-13.78a12.88,12.88,0,0,0-3.8-8.61A9.37,9.37,0,0,0,107,135.28a12.55,12.55,0,0,0-6.18,10.79c-.23,5.18-.08,10.39-.09,15.59C100.75,161.77,100.78,161.89,100.79,162Zm3-14.73a11.08,11.08,0,0,0,2,6.18c2.6,3.69,7.12,4.48,10.37,1.74a10.07,10.07,0,0,0,3.48-9,4.71,4.71,0,0,0-3.6-4.59,15.61,15.61,0,0,0-8.52,0,4.47,4.47,0,0,0-3.4,3.51C103.91,145.82,103.87,146.55,103.78,147.27Zm43.29,1.42.17-.07a7.42,7.42,0,0,0-2.75-5.92.71.71,0,0,0-.62-.11,7.25,7.25,0,0,1-5.81.6,4.41,4.41,0,0,0-1.53-.19,3.44,3.44,0,0,0-3.26,2.91c-.3,1.35-.37,2.76-.54,4.14a.82.82,0,0,0,.07.3,9.17,9.17,0,0,0,3.29,5,6.59,6.59,0,0,0,5.12,1.4c2.95-.41,5.51-2.9,6.48-6.22a.66.66,0,0,0-.05-.39C147.46,149.64,147.26,149.16,147.07,148.69Zm-16.16-4.78c.11,1.47.22,3.14.37,4.81,0,.26.25.5.39.74a2.09,2.09,0,0,0,.27-.77,9.55,9.55,0,0,1,.64-3.82,4.39,4.39,0,0,1,3.09-2.72,5.51,5.51,0,0,1,2.93.16,6,6,0,0,0,4.72-.55,1.78,1.78,0,0,0,.66-.7,8,8,0,0,0,.89-3.45,3.29,3.29,0,0,0-3.36-3.8,12,12,0,0,0-7,1.59,6.66,6.66,0,0,0-3.32,4.78C131,141.34,131,142.53,130.91,143.91Zm-13,17.42c-.89-.25-1.75-.52-2.63-.73a.72.72,0,0,1-.62-.84c0-.82,0-1.64,0-2.42a20.22,20.22,0,0,1-2.9.41,20.19,20.19,0,0,1-2.93-.4c0,.74,0,1.53,0,2.31a.82.82,0,0,1-.73,1c-.85.21-1.68.47-2.56.71A8.36,8.36,0,0,0,117.91,161.33Zm26.88-19.68a8.48,8.48,0,0,1,3.39,7.3c0,.17.2.34.31.52.14-.15.36-.28.42-.46a15.72,15.72,0,0,0,.55-8.54,7.39,7.39,0,0,0-2.1-4,1.67,1.67,0,0,0-1.62-.47A9.73,9.73,0,0,1,144.79,141.65Zm-4.48,21c1-1.21,2-2.39,3-3.45a2.62,2.62,0,0,0,.55-2.32,7.88,7.88,0,0,1-7.2,0c.06.65-.09,1.31.18,1.67C137.91,160,139.11,161.28,140.31,162.67Zm-3.76,3,3-2.27-3.42-4c-.63.56-1.22,1-1.78,1.57a.51.51,0,0,0-.09.46C135,162.78,135.77,164.16,136.55,165.62Zm4.47-2.27,3,2.26c.77-1.45,1.52-2.85,2.25-4.25a.37.37,0,0,0-.08-.36c-.58-.55-1.18-1.07-1.81-1.63Z" transform="translate(-94.08 -124.65)"></path><path d="M123.76,179.33c0-.23,0-.43,0-.64q.13-4.53.28-9.06a5.56,5.56,0,0,1,3-5.18c1.88-.95,3.82-1.77,5.72-2.67.4-.19.58-.06.77.3.73,1.41,1.48,2.81,2.23,4.22.33.61.55.66,1.11.25l3.4-2.51,3.16,2.35c.85.64,1,.61,1.47-.34l2.4-4.5c1.47.62,2.92,1.21,4.33,1.86a16.27,16.27,0,0,1,2.26,1.29,5.35,5.35,0,0,1,2.52,4.46q.18,4.53.34,9.06c0,.35,0,.7,0,1.11Zm17.28-11c-.36-.3-.55-.57-.77-.61-.41-.06-.48.27-.48.62s.08.68.48.61C140.5,169,140.68,168.68,141,168.38Zm-1.52,8.11c.35.31.53.61.75.64.38.06.5-.27.5-.62s-.09-.69-.49-.64C140.07,175.9,139.88,176.19,139.52,176.49Zm.15-4c.19.19.36.49.58.54.39.07.51-.26.52-.6s-.06-.65-.47-.67S139.77,172.05,139.67,172.54Z" transform="translate(-94.08 -124.65)"></path><path d="M125.29,164.46a6.74,6.74,0,0,0-2.09,3.87c-.13,1-.14,2-.18,3-.09,2.66-.17,5.33-.26,8H95.36c0-1.77,0-3.51,0-5.24s.1-3.35.2-5A5.35,5.35,0,0,1,98,164.75a25.35,25.35,0,0,1,6.07-2.92.78.78,0,0,1,.67.18,9.51,9.51,0,0,0,14,0,.6.6,0,0,1,.5-.18C121.23,162.66,123.2,163.54,125.29,164.46Z" transform="translate(-94.08 -124.65)"></path><path d="M100.79,162c0-.11,0-.23,0-.34,0-5.2-.14-10.41.09-15.59A12.55,12.55,0,0,1,107,135.28a9.37,9.37,0,0,1,11.79,1.81,12.88,12.88,0,0,1,3.8,8.61c.19,4.58.11,9.18.14,13.78,0,.86,0,1.73,0,2.69-.71-.31-1.34-.61-2-.84q-2.28-.78-4.59-1.49a.66.66,0,0,1-.57-.7c-.13-1.48,0-2.83,1.54-3.55A11.16,11.16,0,0,0,120.36,145a5.33,5.33,0,0,0-4-4.3,16.77,16.77,0,0,0-8.89-.09,5.69,5.69,0,0,0-4.52,5.41,11.26,11.26,0,0,0,3,9.19c.45.48,1,.83,1.51,1.28a1.14,1.14,0,0,1,.38.68,16.51,16.51,0,0,1,0,2.11.68.68,0,0,1-.35.51c-2.17.77-4.36,1.51-6.55,2.25A.5.5,0,0,1,100.79,162Z" transform="translate(-94.08 -124.65)"></path><path d="M103.78,147.27c.09-.72.13-1.45.29-2.15a4.47,4.47,0,0,1,3.4-3.51,15.61,15.61,0,0,1,8.52,0,4.71,4.71,0,0,1,3.6,4.59,10.07,10.07,0,0,1-3.48,9c-3.25,2.74-7.77,1.95-10.37-1.74A11.08,11.08,0,0,1,103.78,147.27Z" transform="translate(-94.08 -124.65)"></path><path d="M147.07,148.69c.19.47.39.95.57,1.43a.66.66,0,0,1,.05.39c-1,3.32-3.53,5.81-6.48,6.22a6.59,6.59,0,0,1-5.12-1.4,9.17,9.17,0,0,1-3.29-5,.82.82,0,0,1-.07-.3c.17-1.38.24-2.79.54-4.14a3.44,3.44,0,0,1,3.26-2.91,4.41,4.41,0,0,1,1.53.19,7.25,7.25,0,0,0,5.81-.6.71.71,0,0,1,.62.11,7.42,7.42,0,0,1,2.75,5.92Z" transform="translate(-94.08 -124.65)"></path><path d="M130.91,143.91c.09-1.38.07-2.57.26-3.73a6.66,6.66,0,0,1,3.32-4.78,12,12,0,0,1,7-1.59,3.29,3.29,0,0,1,3.36,3.8,8,8,0,0,1-.89,3.45,1.78,1.78,0,0,1-.66.7,6,6,0,0,1-4.72.55,5.51,5.51,0,0,0-2.93-.16,4.39,4.39,0,0,0-3.09,2.72,9.55,9.55,0,0,0-.64,3.82,2.09,2.09,0,0,1-.27.77c-.14-.24-.37-.48-.39-.74C131.13,147.05,131,145.38,130.91,143.91Z" transform="translate(-94.08 -124.65)"></path><path d="M117.91,161.33a8.36,8.36,0,0,1-12.35,0c.88-.24,1.71-.5,2.56-.71a.82.82,0,0,0,.73-1c0-.78,0-1.57,0-2.31a20.19,20.19,0,0,0,2.93.4,20.22,20.22,0,0,0,2.9-.41c0,.78,0,1.6,0,2.42a.72.72,0,0,0,.62.84C116.16,160.81,117,161.08,117.91,161.33Z" transform="translate(-94.08 -124.65)"></path><path d="M144.79,141.65a9.73,9.73,0,0,0,1-5.64,1.67,1.67,0,0,1,1.62.47,7.39,7.39,0,0,1,2.1,4,15.72,15.72,0,0,1-.55,8.54c-.06.18-.28.31-.42.46-.11-.18-.32-.35-.31-.52A8.48,8.48,0,0,0,144.79,141.65Z" transform="translate(-94.08 -124.65)"></path><path d="M140.31,162.67c-1.2-1.39-2.4-2.7-3.47-4.11-.27-.36-.12-1-.18-1.67a7.88,7.88,0,0,0,7.2,0,2.62,2.62,0,0,1-.55,2.32C142.27,160.28,141.35,161.46,140.31,162.67Z" transform="translate(-94.08 -124.65)"></path><path d="M136.55,165.62c-.78-1.46-1.52-2.84-2.24-4.23a.51.51,0,0,1,.09-.46c.56-.52,1.15-1,1.78-1.57l3.42,4Z" transform="translate(-94.08 -124.65)"></path><path d="M141,163.35l3.41-4c.63.56,1.23,1.08,1.81,1.63a.37.37,0,0,1,.08.36c-.73,1.4-1.48,2.8-2.25,4.25Z" transform="translate(-94.08 -124.65)"></path><path class="cls-1" d="M141,168.38c-.36.3-.54.58-.77.62-.4.07-.48-.27-.48-.61s.07-.68.48-.62C140.49,167.81,140.68,168.08,141,168.38Z" transform="translate(-94.08 -124.65)"></path><path class="cls-1" d="M139.52,176.49c.36-.3.55-.59.76-.62.4-.05.49.3.49.64s-.12.68-.5.62C140.05,177.1,139.87,176.8,139.52,176.49Z" transform="translate(-94.08 -124.65)"></path><path class="cls-1" d="M139.67,172.54c.1-.49.23-.75.63-.73s.47.33.47.67-.13.67-.52.6C140,173,139.86,172.73,139.67,172.54Z" transform="translate(-94.08 -124.65)"></path></svg>