<svg xmlns="http://www.w3.org/2000/svg" id="Layer_1" data-name="Layer 1" viewBox="0 0 112.21 119.19"><defs><style>.cls-1{fill:#fff;}</style></defs><title>pound_215559bb9</title><path d="M177.19,348.17h-1.75c-.91-.53-1.84-1-2.71-1.59-1.53-1-3-2.08-4.55-3.13-.53-.37-1-.83-1.53-1.18-2.75-1.77-4-3.11-7.65-.56-3.16,2.21-6.39,4.31-9.59,6.46h-1.75c-.84-.61-2-1-2.45-1.86-1.93-3.53-3.73-7.15-5.42-10.81a4.16,4.16,0,0,0-4.4-2.66c-3.46.17-6.92.34-10.38.47-3.2.12-4.83-1.5-4.72-4.69.13-3.64.19-7.3.5-10.92.22-2.62-1-4.21-3.09-5.37-2.91-1.63-5.85-3.2-8.79-4.77a4.42,4.42,0,0,1-1.83-6.54c1.84-3,3.64-6.13,5.58-9.11a5.33,5.33,0,0,0,0-6.31c-1.94-3.07-3.81-6.19-5.67-9.31a4.35,4.35,0,0,1,1.5-6.07c3.11-1.74,6.23-3.44,9.34-5.15a5.06,5.06,0,0,0,3-5.09c-.25-3.75-.32-7.5-.51-11.25-.14-2.87,1.69-5,4.73-4.73,3.56.29,7.14.35,10.7.51a3.85,3.85,0,0,0,3.86-2.17c1.9-3.72,3.72-7.49,5.65-11.19a3.91,3.91,0,0,1,1.59-1.53,3.69,3.69,0,0,1,4,.39l9,6.21a4.05,4.05,0,0,0,4.9,0l7.41-5,.27-.18a16.79,16.79,0,0,1,2.11-1.49c1.69-.88,4.09-.3,4.85,1.19q2.76,5.44,5.41,10.94c1,2.08,2.05,2.85,4.32,2.76,3.46-.13,6.93-.19,10.37-.49,3.16-.27,5,1.85,4.84,4.84-.2,4-.33,7.94-.49,11.91a4.36,4.36,0,0,0,2.42,4.08c2.68,1.58,5.42,3.08,8.21,4.47,1.74.87,3.27,1.84,3.83,3.84v1.53a15.42,15.42,0,0,1-.78,1.76c-1.93,3.19-3.89,6.37-5.83,9.56a4.79,4.79,0,0,0-.06,5.25c1.17,2,2.42,3.88,3.58,5.85s2.06,3.72,3.09,5.58v1.75c-.52,1.9-2,2.86-3.64,3.6a18,18,0,0,0-1.71,1c-.73.42-1.45.86-2.35,1.4v-1.45c0-6.23-.07-12.47,0-18.7a3.57,3.57,0,0,0-3.74-3.71c-.68,0-1.36,0-2.06,0-.11-1.07-.2-2-.3-2.94a46,46,0,0,0-12.44-27.15,38.84,38.84,0,0,0-9.18-7.26,40.51,40.51,0,0,0-8.2-3.7c-8.8-2.63-17.61-2.76-26.3.67a33.62,33.62,0,0,0-8,3.94,2.12,2.12,0,0,0-.53,3.28,2,2,0,0,0,2.92,0,2.55,2.55,0,0,1,.57-.48c2.73-1.24,5.38-2.8,8.24-3.62a35.65,35.65,0,0,1,23,.61,38.82,38.82,0,0,1,12.76,7.67,42.48,42.48,0,0,1,6.38,7.4,40.81,40.81,0,0,1,6.25,15c.43,2.16.66,4.35,1,6.64-3.37,0-6.46.08-9.55,0a3.72,3.72,0,0,0-4.11,4.12c.13,9.11.05,18.23.05,27.34v1.35c-.43,0-.75.06-1.07.07-1.5,0-3,0-4.48,0a3.08,3.08,0,0,0-2.92,4.08,15,15,0,0,0,.87,1.88,59.64,59.64,0,0,1-6.36,2.69c-8.18,2.4-16.32,2.51-24.34-.82a38.69,38.69,0,0,1-7.34-3.73,41.46,41.46,0,0,1-8.38-7.54,42.37,42.37,0,0,1-4.94-7.42A40.19,40.19,0,0,1,124,293.8c-1.29-12.21,1.75-23.14,9.72-32.6.53-.64,1.09-1.26,1.6-1.91a2.21,2.21,0,0,0-.3-3,1.85,1.85,0,0,0-2.64.29c-1.25,1.5-2.48,3-3.67,4.56a41.41,41.41,0,0,0-6,11.1,47.08,47.08,0,0,0-2.19,24.52,45.86,45.86,0,0,0,11.79,23.89,39.3,39.3,0,0,0,9,7.27,46.54,46.54,0,0,0,8.17,3.78A40.12,40.12,0,0,0,170.24,333a35.14,35.14,0,0,0,5.79-1.57c2.15-.8,4.2-1.88,6.37-2.88l3.71,5.05a10.38,10.38,0,0,0-.87,1.25c-1.72,3.49-3.49,6.95-5.09,10.49A5,5,0,0,1,177.19,348.17Zm-34.6-52.46a3.61,3.61,0,0,1-.11.5c-1.58,3.59-3.06,7.23-4.78,10.76-1.93,4-1.63,6.23,1.46,9.36,1.5,1.5,4.65,1.4,6.31.35a30.52,30.52,0,0,1,4.09-2.39c3.1-1.32,6.16-1.54,9.11.63a13.1,13.1,0,0,0,3.72,1.95c4.69,1.54,8.79-.07,12.56-2.76a9.68,9.68,0,0,0,2.42-2.6,6.28,6.28,0,0,0-3.63-9.36,5.75,5.75,0,0,0-5.23,1.18c-2,1.6-2.23,1.58-4.42.29a18.54,18.54,0,0,0-6.3-2.82c-1.24-.21-2.5-.3-3.81-.45.43-1.39.82-2.75,1.29-4.07.08-.22.55-.4.84-.41,1.24-.05,2.48,0,3.72,0a5.8,5.8,0,0,0,5-2.35,6.44,6.44,0,0,0,.64-7.1,5.64,5.64,0,0,0-5.44-3.19h-4.58c-.38-1.2-.76-2.33-1.08-3.48a48.88,48.88,0,0,1-1.48-5.68c-.47-2.93.86-4.76,3.8-5.19,4.44-.64,6.29.81,7,4.7a12.23,12.23,0,0,1,.09,2.5,6.59,6.59,0,0,0,1.22,4.1,5.94,5.94,0,0,0,10.64-2.82,20.28,20.28,0,0,0-1.53-10.9,16.46,16.46,0,0,0-11.06-10,18.13,18.13,0,0,0-18.84,6.14c-3.38,4.62-4.05,9.78-2.8,15.26.4,1.76.92,3.5,1.42,5.36-2-.13-3.86-.19-5.49,1.07a6.39,6.39,0,0,0-2.39,5.05,6.52,6.52,0,0,0,2.16,4.95C138.58,295.8,140.57,295.8,142.59,295.71Z" transform="translate(-106.1 -228.98)"></path><path class="cls-1" d="M218.31,273.14c-.56-2-2.09-3-3.83-3.84-2.79-1.39-5.53-2.89-8.21-4.47a4.36,4.36,0,0,1-2.42-4.08c.16-4,.29-7.94.49-11.91.16-3-1.68-5.11-4.84-4.84-3.44.3-6.91.36-10.37.49-2.27.09-3.32-.68-4.32-2.76q-2.64-5.5-5.41-10.94c-.76-1.49-3.16-2.07-4.85-1.19a16.79,16.79,0,0,0-2.11,1.49l-.27.18-7.41,5a4.05,4.05,0,0,1-4.9,0l-9-6.21a3.69,3.69,0,0,0-4-.39,3.91,3.91,0,0,0-1.59,1.53c-1.93,3.7-3.75,7.47-5.65,11.19a3.85,3.85,0,0,1-3.86,2.17c-3.56-.16-7.14-.22-10.7-.51-3-.25-4.87,1.86-4.73,4.73.19,3.75.26,7.5.51,11.25a5.06,5.06,0,0,1-3,5.09c-3.11,1.71-6.23,3.41-9.34,5.15a4.35,4.35,0,0,0-1.5,6.07c1.86,3.12,3.73,6.24,5.67,9.31a5.33,5.33,0,0,1,0,6.31c-1.94,3-3.74,6.06-5.58,9.11a4.42,4.42,0,0,0,1.83,6.54c2.94,1.57,5.88,3.14,8.79,4.77,2.07,1.16,3.31,2.75,3.09,5.37-.31,3.62-.37,7.28-.5,10.92-.11,3.19,1.52,4.81,4.72,4.69,3.46-.13,6.92-.3,10.38-.47a4.16,4.16,0,0,1,4.4,2.66c1.69,3.66,3.49,7.28,5.42,10.81.45.82,1.61,1.25,2.45,1.86H106.1V229H218.31Z" transform="translate(-106.1 -228.98)"></path><path class="cls-1" d="M177.19,348.17a5,5,0,0,0,3-2.82c1.6-3.54,3.37-7,5.09-10.49a10.38,10.38,0,0,1,.87-1.25l-3.71-5.05c-2.17,1-4.22,2.08-6.37,2.88a35.14,35.14,0,0,1-5.79,1.57,40.12,40.12,0,0,1-20.71-1.27,46.54,46.54,0,0,1-8.17-3.78,39.3,39.3,0,0,1-9-7.27,45.86,45.86,0,0,1-11.79-23.89,47.08,47.08,0,0,1,2.19-24.52,41.41,41.41,0,0,1,6-11.1c1.19-1.54,2.42-3.06,3.67-4.56a1.85,1.85,0,0,1,2.64-.29,2.21,2.21,0,0,1,.3,3c-.51.65-1.07,1.27-1.6,1.91-8,9.46-11,20.39-9.72,32.6a40.19,40.19,0,0,0,4.5,14.72,42.37,42.37,0,0,0,4.94,7.42,41.46,41.46,0,0,0,8.38,7.54,38.69,38.69,0,0,0,7.34,3.73c8,3.33,16.16,3.22,24.34.82a59.64,59.64,0,0,0,6.36-2.69,15,15,0,0,1-.87-1.88,3.08,3.08,0,0,1,2.92-4.08c1.49,0,3,0,4.48,0,.32,0,.64,0,1.07-.07V318c0-9.11.08-18.23-.05-27.34a3.72,3.72,0,0,1,4.11-4.12c3.09.1,6.18,0,9.55,0-.33-2.29-.56-4.48-1-6.64a40.81,40.81,0,0,0-6.25-15,42.48,42.48,0,0,0-6.38-7.4,38.82,38.82,0,0,0-12.76-7.67,35.65,35.65,0,0,0-23-.61c-2.86.82-5.51,2.38-8.24,3.62a2.55,2.55,0,0,0-.57.48,2,2,0,0,1-2.92,0,2.12,2.12,0,0,1,.53-3.28,33.62,33.62,0,0,1,8-3.94c8.69-3.43,17.5-3.3,26.3-.67a40.51,40.51,0,0,1,8.2,3.7,38.84,38.84,0,0,1,9.18,7.26,46,46,0,0,1,12.44,27.15c.1.93.19,1.87.3,2.94.7,0,1.38,0,2.06,0a3.57,3.57,0,0,1,3.74,3.71c-.1,6.23,0,12.47,0,18.7v1.45c.9-.54,1.62-1,2.35-1.4a18,18,0,0,1,1.71-1c1.68-.74,3.12-1.7,3.64-3.6v43.75ZM199,344.81c5.18-7.12,10.28-14.13,15.52-21.35h-4.23c-2.52,0-3.57-1.06-3.57-3.59v-29H191.27v1.36q0,13.83,0,27.66c0,2.5-1,3.52-3.51,3.53h-4.27Z" transform="translate(-106.1 -228.98)"></path><path class="cls-1" d="M218.31,302.67c-1-1.86-2-3.75-3.09-5.58s-2.41-3.89-3.58-5.85a4.79,4.79,0,0,1,.06-5.25c1.94-3.19,3.9-6.37,5.83-9.56a15.42,15.42,0,0,0,.78-1.76Z" transform="translate(-106.1 -228.98)"></path><path class="cls-1" d="M149.41,348.17c3.2-2.15,6.43-4.25,9.59-6.46,3.65-2.55,4.9-1.21,7.65.56.54.35,1,.81,1.53,1.18,1.51,1.05,3,2.11,4.55,3.13.87.58,1.8,1.06,2.71,1.59Z" transform="translate(-106.1 -228.98)"></path><path class="cls-1" d="M142.59,295.71c-2,.09-4,.09-5.48-1.41a6.52,6.52,0,0,1-2.16-4.95,6.39,6.39,0,0,1,2.39-5.05c1.63-1.26,3.52-1.2,5.49-1.07-.5-1.86-1-3.6-1.42-5.36-1.25-5.48-.58-10.64,2.8-15.26a18.13,18.13,0,0,1,18.84-6.14,16.46,16.46,0,0,1,11.06,10,20.28,20.28,0,0,1,1.53,10.9A5.94,5.94,0,0,1,165,280.16a6.59,6.59,0,0,1-1.22-4.1,12.23,12.23,0,0,0-.09-2.5c-.71-3.89-2.56-5.34-7-4.7-2.94.43-4.27,2.26-3.8,5.19a48.88,48.88,0,0,0,1.48,5.68c.32,1.15.7,2.28,1.08,3.48H160a5.64,5.64,0,0,1,5.44,3.19,6.44,6.44,0,0,1-.64,7.1,5.8,5.8,0,0,1-5,2.35c-1.24,0-2.48,0-3.72,0-.29,0-.76.19-.84.41-.47,1.32-.86,2.68-1.29,4.07,1.31.15,2.57.24,3.81.45a18.54,18.54,0,0,1,6.3,2.82c2.19,1.29,2.45,1.31,4.42-.29a5.75,5.75,0,0,1,5.23-1.18,6.28,6.28,0,0,1,3.63,9.36,9.68,9.68,0,0,1-2.42,2.6c-3.77,2.69-7.87,4.3-12.56,2.76a13.1,13.1,0,0,1-3.72-1.95c-2.95-2.17-6-1.95-9.11-.63a30.52,30.52,0,0,0-4.09,2.39c-1.66,1.05-4.81,1.15-6.31-.35-3.09-3.13-3.39-5.38-1.46-9.36,1.72-3.53,3.2-7.17,4.78-10.76A3.61,3.61,0,0,0,142.59,295.71Zm14.4-8.48c-1,0-1.9,0-2.85,0a2.08,2.08,0,0,1-2.18-1.58,9.68,9.68,0,0,1-.27-1.06c-.88-3.26-2-6.49-2.6-9.8-.84-4.38,1-8.38,5.44-9.63a16,16,0,0,1,5.38-.47,7.09,7.09,0,0,1,5.63,3.15,12.35,12.35,0,0,1,2.06,8,2.14,2.14,0,0,0,2,2.55c1.22.08,2.08-.72,2.25-2.16a16,16,0,0,0-1.21-8,12.76,12.76,0,0,0-9-8,13.67,13.67,0,0,0-9.53,1,12.24,12.24,0,0,0-6.5,6.71,15.35,15.35,0,0,0-.2,10.08c.58,2.07,1.21,4.12,1.79,6.18a2.16,2.16,0,0,1-2.19,3c-1.24,0-2.48,0-3.72,0a2.14,2.14,0,0,0-2.31,2.1,2.18,2.18,0,0,0,2.31,2.35c1.27,0,2.55,0,3.83,0,2,0,2.91,1.28,2.15,3.11-1.87,4.53-3.82,9-5.75,13.53-.28.67-.62,1.32-.88,2a2.16,2.16,0,0,0,.89,2.59,3.22,3.22,0,0,0,2,.15c.32,0,.54-.56.87-.75,5.34-3,10.73-4.84,16.48-.9a11.86,11.86,0,0,0,3.36,1.67c3.06.85,5.67-.51,8.18-2a8,8,0,0,0,1.6-1.31,2.31,2.31,0,0,0,0-3.09,2.09,2.09,0,0,0-2.88-.16c-3.53,2.76-5.88,2.58-9.15.45a14.22,14.22,0,0,0-4.79-2.14,23.4,23.4,0,0,0-5.74-.14c-1.91.08-2.85-1-2.26-2.76,1-2.93,1.93-5.86,2.89-8.79a1.94,1.94,0,0,1,2.05-1.45c2,0,3.94,0,5.9,0a2.23,2.23,0,1,0,.07-4.46C159,287.21,158,287.24,157,287.23Z" transform="translate(-106.1 -228.98)"></path><path d="M199,344.81l-15.52-21.35h4.27c2.48,0,3.51-1,3.51-3.53q0-13.83,0-27.66v-1.36h15.45v29c0,2.53,1.05,3.59,3.57,3.59h4.23C209.28,330.68,204.18,337.69,199,344.81Z" transform="translate(-106.1 -228.98)"></path><path d="M157,287.24c1,0,2,0,3.06,0a2.23,2.23,0,1,1-.07,4.46c-2,0-3.93,0-5.9,0a1.94,1.94,0,0,0-2.05,1.45c-1,2.93-1.94,5.86-2.89,8.79-.59,1.8.35,2.84,2.26,2.76a23.4,23.4,0,0,1,5.74.14,14.22,14.22,0,0,1,4.79,2.14c3.27,2.13,5.62,2.31,9.15-.45a2.09,2.09,0,0,1,2.88.16,2.31,2.31,0,0,1,0,3.09,8,8,0,0,1-1.6,1.31c-2.51,1.53-5.12,2.89-8.18,2a11.86,11.86,0,0,1-3.36-1.67c-5.75-3.94-11.14-2.13-16.48.9-.33.19-.55.72-.87.75a3.22,3.22,0,0,1-2-.15,2.16,2.16,0,0,1-.89-2.59c.26-.67.6-1.32.88-2,1.93-4.5,3.88-9,5.75-13.53.76-1.83-.18-3.09-2.15-3.11-1.28,0-2.56,0-3.83,0a2.18,2.18,0,0,1-2.31-2.35,2.14,2.14,0,0,1,2.31-2.1c1.24,0,2.48,0,3.72,0a2.16,2.16,0,0,0,2.19-3c-.58-2.06-1.21-4.11-1.79-6.18a15.35,15.35,0,0,1,.2-10.08,12.24,12.24,0,0,1,6.5-6.71,13.67,13.67,0,0,1,9.53-1,12.76,12.76,0,0,1,9,8,16,16,0,0,1,1.21,8c-.17,1.44-1,2.24-2.25,2.16a2.14,2.14,0,0,1-2-2.55,12.35,12.35,0,0,0-2.06-8,7.09,7.09,0,0,0-5.63-3.15,16,16,0,0,0-5.38.47c-4.4,1.25-6.28,5.25-5.44,9.63.64,3.31,1.72,6.54,2.6,9.8a9.68,9.68,0,0,0,.27,1.06,2.08,2.08,0,0,0,2.18,1.58C155.09,287.19,156,287.23,157,287.24Z" transform="translate(-106.1 -228.98)"></path></svg>