<svg xmlns="http://www.w3.org/2000/svg" id="Layer_1" data-name="Layer 1" viewBox="0 0 60.78 60.77"><defs><style>.cls-1{fill:#fff;}</style></defs><title>student</title><path class="cls-1" d="M94.31,121.21H92.89V60.44h60.78V90.05a1.06,1.06,0,0,1-.11-.21A5.2,5.2,0,0,0,150.43,86c-.34-.14-.32-.38-.32-.66V74.58l-3.55,1v.69c0,3,0,6,0,9a.81.81,0,0,1-.53.88A5.21,5.21,0,0,0,142.89,91c0,1.09,0,2.18,0,3.26a1.77,1.77,0,0,0,1.94,2c2.19,0,4.38,0,6.57,0a2.15,2.15,0,0,0,2.27-1.32v18.25a1.53,1.53,0,0,1-.11-.27,12.26,12.26,0,0,0-7.9-10c-2.35-1-4.78-1.72-7.17-2.6a.75.75,0,0,0-.92.22c-4,4-8.07,8.07-12.09,12.12a1.44,1.44,0,0,0-.35.87c0,2.58,0,5.17,0,7.76h-3.56c0-2.61,0-5.21,0-7.82a1.26,1.26,0,0,0-.31-.77q-6.24-6.2-12.5-12.35a.64.64,0,0,0-.55-.12c-2.56.92-5.17,1.71-7.63,2.84A12.14,12.14,0,0,0,93,114.33c0,1.51,0,3,0,4.55A2.18,2.18,0,0,0,94.31,121.21Zm29-42.75c.29-.06.6-.11.9-.2l21.19-6c1.1-.31,2.2-.61,3.29-.94a1.8,1.8,0,0,0,1.36-1.42,1.66,1.66,0,0,0-.67-1.73,3.61,3.61,0,0,0-1.08-.47q-12-3.5-24.11-7a3.36,3.36,0,0,0-1.78,0q-10.36,3-20.71,6L98.1,67.79a1.82,1.82,0,0,0-1.39,1.46,1.62,1.62,0,0,0,.65,1.67,3.09,3.09,0,0,0,1,.46q12.06,3.47,24.13,6.9C122.77,78.36,123,78.4,123.34,78.46Zm-16,6.81c0,1.08-.06,2.07,0,3a16,16,0,0,0,13.72,14.83A14.59,14.59,0,0,0,132,100.57a16.66,16.66,0,0,0,6.27-9.28,25.24,25.24,0,0,0,1-6A37.25,37.25,0,0,1,107.37,85.27Zm32-7.64-.59.16c-4.84,1.38-9.68,2.78-14.53,4.13a3.38,3.38,0,0,1-1.73,0c-3.35-.92-6.69-1.9-10-2.86l-5.09-1.44v.58c0,1,0,1.9,0,2.85a.57.57,0,0,0,.3.41c.89.44,1.77.87,2.68,1.24A34.11,34.11,0,0,0,127.9,85,33.68,33.68,0,0,0,139,81.48a.66.66,0,0,0,.33-.47C139.34,79.91,139.33,78.81,139.33,77.63Zm-13.21,29.12h-5.56l2.79,2.8Z" transform="translate(-92.89 -60.44)"></path><path d="M94.31,121.21A2.18,2.18,0,0,1,93,118.88c.07-1.51,0-3,0-4.55A12.14,12.14,0,0,1,100.56,103c2.46-1.13,5.07-1.92,7.63-2.84a.64.64,0,0,1,.55.12q6.26,6.17,12.5,12.35a1.26,1.26,0,0,1,.31.77c0,2.61,0,5.21,0,7.82Z" transform="translate(-92.89 -60.44)"></path><path d="M125.12,121.21c0-2.59,0-5.18,0-7.76a1.44,1.44,0,0,1,.35-.87c4-4,8.07-8.08,12.09-12.12a.75.75,0,0,1,.92-.22c2.39.88,4.82,1.64,7.17,2.6a12.26,12.26,0,0,1,7.9,10,1.53,1.53,0,0,0,.11.27v6.75a2.59,2.59,0,0,1-1.3,1.31Z" transform="translate(-92.89 -60.44)"></path><path d="M153.67,94.9a2.15,2.15,0,0,1-2.27,1.32c-2.19,0-4.38,0-6.57,0a1.77,1.77,0,0,1-1.94-2c0-1.08,0-2.17,0-3.26A5.21,5.21,0,0,1,146,86.11a.81.81,0,0,0,.53-.88c0-3,0-6,0-9v-.69l3.55-1V85.35c0,.28,0,.52.32.66a5.2,5.2,0,0,1,3.13,3.83,1.06,1.06,0,0,0,.11.21Z" transform="translate(-92.89 -60.44)"></path><path class="cls-1" d="M152.37,121.21a2.59,2.59,0,0,0,1.3-1.31v1.31Z" transform="translate(-92.89 -60.44)"></path><path d="M123.34,78.46c-.3-.06-.57-.1-.84-.18q-12.06-3.44-24.13-6.9a3.09,3.09,0,0,1-1-.46,1.62,1.62,0,0,1-.65-1.67,1.82,1.82,0,0,1,1.39-1.46l3.63-1.06q10.35-3,20.71-6a3.36,3.36,0,0,1,1.78,0q12.08,3.44,24.11,7a3.61,3.61,0,0,1,1.08.47,1.66,1.66,0,0,1,.67,1.73,1.8,1.8,0,0,1-1.36,1.42c-1.09.33-2.19.63-3.29.94l-21.19,6C123.94,78.35,123.63,78.4,123.34,78.46Z" transform="translate(-92.89 -60.44)"></path><path d="M107.37,85.27a37.25,37.25,0,0,0,31.84,0,25.24,25.24,0,0,1-1,6,16.66,16.66,0,0,1-6.27,9.28,14.59,14.59,0,0,1-10.88,2.58,16,16,0,0,1-13.72-14.83C107.31,87.34,107.37,86.35,107.37,85.27Zm15.95,14.49a8.89,8.89,0,0,0,6.23-2.56,1.76,1.76,0,0,0-2.31-2.65c-.25.19-.48.41-.74.59a5.34,5.34,0,0,1-3.61,1,5.81,5.81,0,0,1-3.39-1.5,1.73,1.73,0,0,0-2.53.15,1.76,1.76,0,0,0,.21,2.48A8.88,8.88,0,0,0,123.32,99.76Z" transform="translate(-92.89 -60.44)"></path><path d="M139.33,77.63c0,1.18,0,2.28,0,3.38a.66.66,0,0,1-.33.47A33.68,33.68,0,0,1,127.9,85a34.11,34.11,0,0,1-17.56-2.25c-.91-.37-1.79-.8-2.68-1.24a.57.57,0,0,1-.3-.41c0-1,0-1.9,0-2.85v-.58l5.09,1.44c3.35,1,6.69,1.94,10,2.86a3.38,3.38,0,0,0,1.73,0c4.85-1.35,9.69-2.75,14.53-4.13Z" transform="translate(-92.89 -60.44)"></path><path d="M126.12,106.75l-2.77,2.8-2.79-2.8Z" transform="translate(-92.89 -60.44)"></path><path class="cls-1" d="M123.32,99.76a8.88,8.88,0,0,1-6.14-2.51,1.76,1.76,0,0,1-.21-2.48,1.73,1.73,0,0,1,2.53-.15,5.81,5.81,0,0,0,3.39,1.5,5.34,5.34,0,0,0,3.61-1c.26-.18.49-.4.74-.59a1.76,1.76,0,0,1,2.31,2.65A8.89,8.89,0,0,1,123.32,99.76Z" transform="translate(-92.89 -60.44)"></path></svg>