<svg xmlns="http://www.w3.org/2000/svg" id="Layer_1" data-name="Layer 1" viewBox="0 0 49.6 49.6"><defs><style>.cls-1{fill:#fff;}</style></defs><title>SupportStudent</title><path class="cls-1" d="M111.09,229.91h49.6v49.6h-49.6Zm24.7,39.37c-2.12,0-4.25,0-6.38,0a1.1,1.1,0,0,1-.74-.32.76.76,0,0,1,0-.73,1.13,1.13,0,0,1,.79-.4c3.29,0,6.57,0,9.86,0,.9,0,1.81,0,2.71,0a1.74,1.74,0,0,0,1.67-1.48,1.7,1.7,0,0,0-1.1-1.83,2.74,2.74,0,0,0-.85-.13c-2,0-4,0-6,0a16.53,16.53,0,0,1-3-.45c-1-.24-2.06-.63-3.09-.92a9.76,9.76,0,0,0-9.85,2.29,11.7,11.7,0,0,1-1.74,1.29c-1.39.91-2.8,1.77-4.21,2.65-.65.41-.72.63-.37,1.3l3.65,7.08c.38.72.63.8,1.34.42,1.62-.83,3.23-1.68,4.84-2.51a6.08,6.08,0,0,1,3.53-.78c3,.34,5.94.73,8.91,1.1a5.48,5.48,0,0,0,3.29-.45c1.06-.54,2.14-1,3.17-1.64A62.91,62.91,0,0,0,156.15,262a1.83,1.83,0,0,0,0-2.54,1.86,1.86,0,0,0-2.58-.09c-2.72,2.27-5.42,4.56-8.13,6.85a1,1,0,0,0-.29.46,3.22,3.22,0,0,1-3.37,2.59Zm-14.48-30.61.64.32c4.74,2.29,9.47,4.56,14.2,6.86a1,1,0,0,0,.94,0q4.64-2.27,9.28-4.49L147,241l0-.09H136.6a2.24,2.24,0,0,1-2.12-3,2.28,2.28,0,0,1,2.35-1.56h9.72l.57,0-.22-.15c-3.32-1.59-6.63-3.19-10-4.77a1,1,0,0,0-.71,0c-2.37,1.12-4.73,2.26-7.09,3.4Zm26.51,3.67-.67.32c-3.31,1.59-6.61,3.17-9.91,4.77a1.28,1.28,0,0,1-1.23,0l-10.12-4.87-.42-.19c0,.08-.06.1-.06.13,0,3.16,0,6.32,0,9.47a2.1,2.1,0,0,0,1.79,2.1,23,23,0,0,0,2.88,0,4,4,0,0,1,6.51-3.52,4,4,0,0,1,6.43,3.59h2.26a3.85,3.85,0,0,0,.48,0,2.28,2.28,0,0,0,2-2.3c0-.71,0-1.42,0-2.12Zm-6.28,11.15a2.36,2.36,0,0,0-1.48-2.05,2.48,2.48,0,0,0-2.69.48c-.71.68-.87.68-1.58,0a2.45,2.45,0,0,0-4.12,1.33,3,3,0,0,0,.57,2.28,12,12,0,0,0,4.16,3.67.46.46,0,0,0,.38,0,12.28,12.28,0,0,0,4.13-3.65A3.45,3.45,0,0,0,141.54,253.49ZM157,244.33c0-1.09.07-2.12,0-3.14a3.64,3.64,0,0,0-3.66-3.25H136.6a.71.71,0,0,0-.74.68.73.73,0,0,0,.61.81,2.26,2.26,0,0,0,.58,0h16.14a2.15,2.15,0,0,1,2.27,1.87,13,13,0,0,1,0,1.4v1.59Zm-2,1.54-1,7h4.52l-1-7Z" transform="translate(-111.09 -229.91)"></path><path d="M135.79,269.28h6a3.22,3.22,0,0,0,3.37-2.59,1,1,0,0,1,.29-.46c2.71-2.29,5.41-4.58,8.13-6.85a1.86,1.86,0,0,1,2.58.09,1.83,1.83,0,0,1,0,2.54,62.91,62.91,0,0,1-14.06,11.7c-1,.6-2.11,1.1-3.17,1.64a5.48,5.48,0,0,1-3.29.45c-3-.37-5.94-.76-8.91-1.1a6.08,6.08,0,0,0-3.53.78c-1.61.83-3.22,1.68-4.84,2.51-.71.38-1,.3-1.34-.42l-3.65-7.08c-.35-.67-.28-.89.37-1.3,1.41-.88,2.82-1.74,4.21-2.65a11.7,11.7,0,0,0,1.74-1.29,9.76,9.76,0,0,1,9.85-2.29c1,.29,2.05.68,3.09.92a16.53,16.53,0,0,0,3,.45c2,.07,4,0,6,0a2.74,2.74,0,0,1,.85.13,1.7,1.7,0,0,1,1.1,1.83A1.74,1.74,0,0,1,142,267.8c-.9,0-1.81,0-2.71,0-3.29,0-6.57,0-9.86,0a1.13,1.13,0,0,0-.79.4.76.76,0,0,0,0,.73,1.1,1.1,0,0,0,.74.32C131.54,269.29,133.67,269.28,135.79,269.28Z" transform="translate(-111.09 -229.91)"></path><path d="M121.31,238.67l7.84-3.77c2.36-1.14,4.72-2.28,7.09-3.4a1,1,0,0,1,.71,0c3.32,1.58,6.63,3.18,10,4.77l.22.15-.57,0h-9.72a2.28,2.28,0,0,0-2.35,1.56,2.24,2.24,0,0,0,2.12,3H147l0,.09-.67.34q-4.63,2.24-9.28,4.49a1,1,0,0,1-.94,0c-4.73-2.3-9.46-4.57-14.2-6.86Z" transform="translate(-111.09 -229.91)"></path><path d="M147.82,242.34v7.39c0,.7,0,1.41,0,2.12a2.28,2.28,0,0,1-2,2.3,3.85,3.85,0,0,1-.48,0H143a4,4,0,0,0-6.43-3.59,4,4,0,0,0-6.51,3.52,23,23,0,0,1-2.88,0,2.1,2.1,0,0,1-1.79-2.1c0-3.15,0-6.31,0-9.47,0,0,0-.05.06-.13l.42.19L136,247.43a1.28,1.28,0,0,0,1.23,0c3.3-1.6,6.6-3.18,9.91-4.77Z" transform="translate(-111.09 -229.91)"></path><path d="M141.54,253.49a3.45,3.45,0,0,1-.63,2.08,12.28,12.28,0,0,1-4.13,3.65.46.46,0,0,1-.38,0,12,12,0,0,1-4.16-3.67,3,3,0,0,1-.57-2.28,2.45,2.45,0,0,1,4.12-1.33c.71.67.87.67,1.58,0a2.48,2.48,0,0,1,2.69-.48A2.36,2.36,0,0,1,141.54,253.49Z" transform="translate(-111.09 -229.91)"></path><path d="M157,244.33h-1.52v-1.59a13,13,0,0,0,0-1.4,2.15,2.15,0,0,0-2.27-1.87H137.05a2.26,2.26,0,0,1-.58,0,.73.73,0,0,1-.61-.81.71.71,0,0,1,.74-.68h16.72a3.64,3.64,0,0,1,3.66,3.25C157.07,242.21,157,243.24,157,244.33Z" transform="translate(-111.09 -229.91)"></path><path d="M155,245.87h2.51l1,7H154Z" transform="translate(-111.09 -229.91)"></path></svg>