<svg xmlns="http://www.w3.org/2000/svg" xmlns:xlink="http://www.w3.org/1999/xlink" fill="#000000" height="800px" width="800px" id="Layer_1" viewBox="0 0 512 512" xml:space="preserve"><g>	<g>		<path d="M504.242,201.698V62.061h-77.573v15.515H279.274V46.546h62.061V0H170.668v46.546h62.061v31.031H85.334v31.031H7.758   v46.546h77.576v31.031h69.819v31.034h35.016c-2.572,7.28-3.986,15.106-3.986,23.267c0,11.7,2.892,22.721,7.979,32.407L46.141,512   h54.742l128.195-207.085c1.199,0.501,2.417,0.964,3.649,1.398v205.686h46.546V306.313c1.232-0.436,2.451-0.897,3.649-1.398   L411.117,512h54.742L317.838,272.89c5.087-9.686,7.979-20.707,7.979-32.407c0-8.161-1.413-15.987-3.986-23.267h35.016v-31.034   h69.819v15.515H504.242z M256.002,263.756c-12.833,0-23.273-10.44-23.273-23.273c0-12.792,10.377-23.201,23.153-23.267h0.239   c12.777,0.065,23.153,10.474,23.153,23.267C279.274,253.316,268.834,263.756,256.002,263.756z M310.305,139.637v31.034H201.698   v-31.034H131.88v-15.515H457.7v15.515H310.305z"></path>	</g></g></svg>