<svg xmlns="http://www.w3.org/2000/svg" id="Layer_1" data-name="Layer 1" viewBox="0 0 71.77 71.78"><defs><style>.cls-1{fill:#fff;}</style></defs><title>tutor</title><path class="cls-1" d="M61.3,202.22V130.44h71.77v71.78Zm47.13-35.45c.89-.74,1.68-1.43,2.5-2.07a2.27,2.27,0,0,1,1.14-.62,2.26,2.26,0,0,0,1.71-1.05c.53-.65.94-1.39,1.48-2a6.21,6.21,0,0,1,1.57-1.42,1,1,0,0,0,.6-1c0-2.51,0-5,0-7.55,0-.9.39-1.4,1.07-1.46s1.3.44,1.31,1.35c0,2.59,0,5.18,0,7.76,0,.37.06.57.46.72a3.94,3.94,0,0,1,2.7,3.78,4.13,4.13,0,0,1-2.81,3.79,23.58,23.58,0,0,0-2.77,1.45c-.19.11-.28.39-.43.59a6,6,0,0,1-1,1.41c-2.5,1.92-5,3.78-7.56,5.65a4.13,4.13,0,0,1-6.33-1.47c-.38-.73-.78-1.45-1.17-2.18l-.1,0v8.08h29.81c0-.19,0-.33,0-.47q0-21.2,0-42.4A2.38,2.38,0,0,0,128,135.2H100.76a4,4,0,0,0-.46,0,20,20,0,0,1,1.28,3.69,46.33,46.33,0,0,1,.29,5.78,3.51,3.51,0,0,1-2,3.28,1.2,1.2,0,0,0-.51.71,8,8,0,0,1-2.66,4.63,2,2,0,0,0-.83,1.9.67.67,0,0,0,.61.74c1.42.35,2.82.77,4.24,1.14a8.59,8.59,0,0,1,6.19,5.63C107.41,164,107.89,165.34,108.43,166.77ZM75.65,180.56v-1c0-5,0-10,0-15a8.22,8.22,0,0,1,5.62-7.6c1.44-.49,3-.74,4.46-1.11.19,0,.44-.09.55-.23a2.32,2.32,0,0,0-.4-2,8.38,8.38,0,0,1-3-4.92,1.3,1.3,0,0,0-.57-.75,3.19,3.19,0,0,1-1.87-2.55,22.06,22.06,0,0,1,.26-6.88,32.21,32.21,0,0,1,1.29-3.34H66.39a2.43,2.43,0,0,0-2.71,2.72v42.65Zm22.7,0V168.24c0-.18,0-.37,0-.56a1.17,1.17,0,0,1,.9-1.38c.71-.17,1.12.25,1.43.83l3.42,6.41a1.77,1.77,0,0,0,2.81.65c1.43-1,2.85-2.11,4.27-3.17l3.33-2.47-2-2.11-2.44,1.94a2.36,2.36,0,0,1-4-1.11c-.52-1.37-1-2.75-1.55-4.11a6.16,6.16,0,0,0-4-3.66c-.47-.16-.71-.13-1,.38a10.39,10.39,0,0,1-1.52,2.33,10.05,10.05,0,0,1-2.36,1.9c-.76.43-1,.66-.9,1.55.36,2.28.7,4.56,1,6.84a2.25,2.25,0,0,1-.86,2.36c-.89.62-1.81,1.23-2.73,1.81a2.05,2.05,0,0,1-2.31,0c-.87-.55-1.72-1.12-2.56-1.7a2.13,2.13,0,0,1-1-2.24c.35-2.39.7-4.79,1-7.18a1.08,1.08,0,0,0-.85-1.37,4,4,0,0,1-1.14-.65,10.86,10.86,0,0,1-3.16-4.35c-.29.12-.56.2-.8.33A6.19,6.19,0,0,0,78,165.28c0,4.88,0,9.75,0,14.62,0,.21,0,.41,0,.66h3.57V168.17c0-.19,0-.38,0-.56a1.2,1.2,0,1,1,2.37,0c0,3.66,0,7.32,0,11v1.93ZM130.56,183H63.68c0,.89,0,1.73,0,2.56a1.94,1.94,0,0,0,.09.48,2.48,2.48,0,0,0,2.71,1.74h61.76a2.39,2.39,0,0,0,2.29-2.14C130.6,184.77,130.56,183.91,130.56,183ZM91.13,153.11a5.93,5.93,0,0,0,6-5.77A1.25,1.25,0,0,1,98.37,146a1.18,1.18,0,0,0,1.13-1.2c0-.66-.37-1-1.12-1.19s-1.15-.43-1.26-1.31a1.27,1.27,0,0,0-2-1,10.31,10.31,0,0,1-1,.51,7.68,7.68,0,0,1-6.92-.43c-1-.56-1.89-.2-2.06.86a1.51,1.51,0,0,1-1.45,1.42,1.07,1.07,0,0,0-1,1.19,1.14,1.14,0,0,0,1,1.15c1.26.3,1.35.4,1.46,1.71A5.91,5.91,0,0,0,91.13,153.11Zm22.74,46.57v-1.81c0-1.42-.37-1.79-1.78-1.79H82.15a4.28,4.28,0,0,0-.62,0,1.1,1.1,0,0,0-1.09,1c-.07.85,0,1.7,0,2.58ZM99.42,141.34c.37-2.71-1.45-5.89-4.16-7.45a8.36,8.36,0,0,0-9.38.78c-2,1.59-3.49,4.89-3,6.65.08-.19.15-.36.23-.52a3.58,3.58,0,0,1,5-1.7,5.85,5.85,0,0,0,6.1,0,3.56,3.56,0,0,1,4.92,1.63C99.21,140.91,99.3,141.08,99.42,141.34ZM88.15,193.67h17.94c-.3-.76-.57-1.44-.85-2.13-.56-1.41-.56-1.41-2.11-1.41-4.31,0-8.62,0-12.93,0a1,1,0,0,0-.76.37C89,191.52,88.59,192.57,88.15,193.67Zm1.62-27.38c-.27,1.82-.43,3.59-.81,5.3a1.73,1.73,0,0,0,1,2.22c1.26.71,1.19.72,2.45,0,.87-.5,1.35-1,1-2.08a5,5,0,0,1-.16-1c-.22-1.47-.45-2.93-.67-4.4Zm26,.13c1.33-.62,2.52-1.18,3.72-1.72a1.81,1.81,0,0,0,1.11-1.64,1.78,1.78,0,0,0-1.29-1.5,1.85,1.85,0,0,0-2,.53c-.79,1.12-1.58,2.23-2.41,3.42Zm-27-11.07c-.17,1.06,0,1.48,1.1,2.09a2.32,2.32,0,0,0,3-.29c.75-.61.87-1,.62-1.8Zm-4.1,3.21A7.85,7.85,0,0,0,87,161.7c.4.34.71.28.93-.21l.81-1.86c-.52-.47-1-.95-1.59-1.41a.53.53,0,0,0-.36-.13C86.11,158.23,85.42,158.4,84.69,158.56Zm8.85,1.06c.27.63.53,1.27.82,1.9.15.35.43.54.77.28a7.47,7.47,0,0,0,2.42-3.11c-.71-.2-1.33-.38-2-.53a.69.69,0,0,0-.5.12C94.55,158.72,94,159.18,93.54,159.62Zm-2.28.86c-.2.18-.29.23-.33.31-.46.87-.93,1.74-1.36,2.63,0,.07.24.42.39.43.76,0,1.53,0,2.29,0,.16,0,.45-.07.47-.15a1.16,1.16,0,0,0-.14-.56c-.16-.35-.34-.7-.51-1.05Z" transform="translate(-61.3 -130.44)"></path><path d="M108.43,166.77c-.54-1.43-1-2.73-1.51-4a8.59,8.59,0,0,0-6.19-5.63c-1.42-.37-2.82-.79-4.24-1.14a.67.67,0,0,1-.61-.74,2,2,0,0,1,.83-1.9,8,8,0,0,0,2.66-4.63,1.2,1.2,0,0,1,.51-.71,3.51,3.51,0,0,0,2-3.28,46.33,46.33,0,0,0-.29-5.78,20,20,0,0,0-1.28-3.69,4,4,0,0,1,.46,0H128a2.38,2.38,0,0,1,2.59,2.48q0,21.21,0,42.4c0,.14,0,.28,0,.47H100.73v-8.08l.1,0c.39.73.79,1.45,1.17,2.18a4.13,4.13,0,0,0,6.33,1.47c2.52-1.87,5.06-3.73,7.56-5.65a6,6,0,0,0,1-1.41c.15-.2.24-.48.43-.59a23.58,23.58,0,0,1,2.77-1.45,4.13,4.13,0,0,0,2.81-3.79,3.94,3.94,0,0,0-2.7-3.78c-.4-.15-.46-.35-.46-.72,0-2.58,0-5.17,0-7.76,0-.91-.51-1.42-1.31-1.35s-1.07.56-1.07,1.46c0,2.52,0,5,0,7.55a1,1,0,0,1-.6,1,6.21,6.21,0,0,0-1.57,1.42c-.54.63-1,1.37-1.48,2a2.26,2.26,0,0,1-1.71,1.05,2.27,2.27,0,0,0-1.14.62C110.11,165.34,109.32,166,108.43,166.77Z" transform="translate(-61.3 -130.44)"></path><path d="M75.65,180.56h-12V137.91a2.43,2.43,0,0,1,2.71-2.72H82.06a32.21,32.21,0,0,0-1.29,3.34,22.06,22.06,0,0,0-.26,6.88A3.19,3.19,0,0,0,82.38,148a1.3,1.3,0,0,1,.57.75,8.38,8.38,0,0,0,3,4.92,2.32,2.32,0,0,1,.4,2c-.11.14-.36.18-.55.23-1.49.37-3,.62-4.46,1.11a8.22,8.22,0,0,0-5.62,7.6c-.08,5,0,10,0,15Z" transform="translate(-61.3 -130.44)"></path><path d="M98.35,180.56H84v-1.93c0-3.66,0-7.32,0-11a1.2,1.2,0,1,0-2.37,0c0,.18,0,.37,0,.56v12.39H78c0-.25,0-.45,0-.66,0-4.87,0-9.74,0-14.62a6.19,6.19,0,0,1,3.54-5.81c.24-.13.51-.21.8-.33a10.86,10.86,0,0,0,3.16,4.35,4,4,0,0,0,1.14.65,1.08,1.08,0,0,1,.85,1.37c-.34,2.39-.69,4.79-1,7.18a2.13,2.13,0,0,0,1,2.24c.84.58,1.69,1.15,2.56,1.7a2.05,2.05,0,0,0,2.31,0c.92-.58,1.84-1.19,2.73-1.81a2.25,2.25,0,0,0,.86-2.36c-.34-2.28-.68-4.56-1-6.84-.14-.89.14-1.12.9-1.55a10.05,10.05,0,0,0,2.36-1.9,10.39,10.39,0,0,0,1.52-2.33c.26-.51.5-.54,1-.38a6.16,6.16,0,0,1,4,3.66c.55,1.36,1,2.74,1.55,4.11a2.36,2.36,0,0,0,4,1.11l2.44-1.94,2,2.11L111.18,171c-1.42,1.06-2.84,2.13-4.27,3.17a1.77,1.77,0,0,1-2.81-.65l-3.42-6.41c-.31-.58-.72-1-1.43-.83a1.17,1.17,0,0,0-.9,1.38c0,.19,0,.38,0,.56v12.32Z" transform="translate(-61.3 -130.44)"></path><path d="M130.56,183c0,.91,0,1.77,0,2.63a2.39,2.39,0,0,1-2.29,2.14H66.49A2.48,2.48,0,0,1,63.78,186a1.94,1.94,0,0,1-.09-.48c0-.83,0-1.67,0-2.56Z" transform="translate(-61.3 -130.44)"></path><path d="M91.13,153.11a5.91,5.91,0,0,1-5.92-5.46c-.11-1.31-.2-1.41-1.46-1.71a1.14,1.14,0,0,1-1-1.15,1.07,1.07,0,0,1,1-1.19,1.51,1.51,0,0,0,1.45-1.42c.17-1.06,1.07-1.42,2.06-.86a7.68,7.68,0,0,0,6.92.43,10.31,10.31,0,0,0,1-.51,1.27,1.27,0,0,1,2,1c.11.88.38,1.16,1.26,1.31s1.12.53,1.12,1.19a1.18,1.18,0,0,1-1.13,1.2,1.25,1.25,0,0,0-1.25,1.38A5.93,5.93,0,0,1,91.13,153.11Z" transform="translate(-61.3 -130.44)"></path><path d="M113.87,199.68H80.42c0-.88,0-1.73,0-2.58a1.1,1.1,0,0,1,1.09-1,4.28,4.28,0,0,1,.62,0h29.94c1.41,0,1.78.37,1.78,1.79Z" transform="translate(-61.3 -130.44)"></path><path d="M99.42,141.34c-.12-.26-.21-.43-.3-.61a3.56,3.56,0,0,0-4.92-1.63,5.85,5.85,0,0,1-6.1,0,3.58,3.58,0,0,0-5,1.7c-.08.16-.15.33-.23.52-.52-1.76,1-5.06,3-6.65a8.36,8.36,0,0,1,9.38-.78C98,135.45,99.79,138.63,99.42,141.34Z" transform="translate(-61.3 -130.44)"></path><path d="M88.15,193.67c.44-1.1.82-2.15,1.29-3.16a1,1,0,0,1,.76-.37c4.31,0,8.62,0,12.93,0,1.55,0,1.55,0,2.11,1.41.28.69.55,1.37.85,2.13Z" transform="translate(-61.3 -130.44)"></path><path d="M89.77,166.29h2.75c.22,1.47.45,2.93.67,4.4a5,5,0,0,0,.16,1c.38,1-.1,1.58-1,2.08-1.26.73-1.19.72-2.45,0a1.73,1.73,0,0,1-1-2.22C89.34,169.88,89.5,168.11,89.77,166.29Z" transform="translate(-61.3 -130.44)"></path><path d="M115.77,166.42l-.83-.91c.83-1.19,1.62-2.3,2.41-3.42a1.85,1.85,0,0,1,2-.53,1.78,1.78,0,0,1,1.29,1.5,1.81,1.81,0,0,1-1.11,1.64C118.29,165.24,117.1,165.8,115.77,166.42Z" transform="translate(-61.3 -130.44)"></path><path d="M88.79,155.35h4.68c.25.78.13,1.19-.62,1.8a2.32,2.32,0,0,1-3,.29C88.82,156.83,88.62,156.41,88.79,155.35Z" transform="translate(-61.3 -130.44)"></path><path d="M84.69,158.56c.73-.16,1.42-.33,2.13-.47a.53.53,0,0,1,.36.13c.54.46,1.07.94,1.59,1.41L88,161.49c-.22.49-.53.55-.93.21A7.85,7.85,0,0,1,84.69,158.56Z" transform="translate(-61.3 -130.44)"></path><path d="M93.54,159.62c.5-.44,1-.9,1.55-1.34a.69.69,0,0,1,.5-.12c.63.15,1.25.33,2,.53a7.47,7.47,0,0,1-2.42,3.11c-.34.26-.62.07-.77-.28C94.07,160.89,93.81,160.25,93.54,159.62Z" transform="translate(-61.3 -130.44)"></path><path d="M91.26,160.48l.81,1.62c.17.35.35.7.51,1.05a1.16,1.16,0,0,1,.14.56c0,.08-.31.15-.47.15-.76,0-1.53,0-2.29,0-.15,0-.42-.36-.39-.43.43-.89.9-1.76,1.36-2.63C91,160.71,91.06,160.66,91.26,160.48Z" transform="translate(-61.3 -130.44)"></path></svg>